<svg width="64" height="64" viewBox="0 0 64 64" fill="none" xmlns="http://www.w3.org/2000/svg">
  <rect x="12" y="20" width="8" height="24" rx="2" fill="#4A5568"/>
  <path d="M20 22L44 10C45.6569 9.16667 47.5 10.3682 47.5 12.1547V51.8453C47.5 53.6318 45.6569 54.8333 44 54L20 42V22Z" fill="#2D3748"/>
  <path d="M52 26C53.5 27.5 54.5 29.5 54.5 32C54.5 34.5 53.5 36.5 52 38" stroke="#4A5568" stroke-width="2" stroke-linecap="round"/>
  <path d="M56 22C58.5 24.5 60 27.5 60 32C60 36.5 58.5 39.5 56 42" stroke="#718096" stroke-width="2" stroke-linecap="round"/>
  <rect x="8" y="28" width="4" height="8" rx="1" fill="#718096"/>
</svg>