<?xml version="1.0" encoding="UTF-8"?>
<svg width="239px" height="29px" viewBox="0 0 239 29" version="1.1" xmlns="http://www.w3.org/2000/svg" xmlns:xlink="http://www.w3.org/1999/xlink">
    <title>形状结合</title>
    <g id="页面-1" stroke="none" stroke-width="1" fill="none" fill-rule="evenodd">
        <path d="M146.5,0 L146.5,29 L145.5,29 L145.5,0 L146.5,0 Z M204.654808,10.849 C205.508808,10.849 206.243808,11.01 206.859808,11.332 C207.475808,11.654 207.986808,12.081 208.392808,12.613 C208.798808,13.145 209.099808,13.7645 209.295808,14.4715 C209.491808,15.1785 209.589808,15.917 209.589808,16.687 C209.589808,17.415 209.491808,18.115 209.295808,18.787 C209.099808,19.459 208.802308,20.054 208.403308,20.572 C208.004308,21.09 207.507308,21.503 206.912308,21.811 C206.317308,22.119 205.620808,22.273 204.822808,22.273 C204.150808,22.273 203.531308,22.1365 202.964308,21.8635 C202.397308,21.5905 201.931808,21.188 201.567808,20.656 L201.567808,20.656 L201.525808,20.656 L201.525808,25.801 L198.543808,25.801 L198.543808,11.143 L201.378808,11.143 L201.378808,12.529 L201.420808,12.529 C201.784808,11.941 202.246808,11.514 202.806808,11.248 C203.366808,10.982 203.982808,10.849 204.654808,10.849 Z M191.823808,10.849 C192.677808,10.849 193.412808,11.01 194.028808,11.332 C194.644808,11.654 195.155808,12.081 195.561808,12.613 C195.967808,13.145 196.268808,13.7645 196.464808,14.4715 C196.660808,15.1785 196.758808,15.917 196.758808,16.687 C196.758808,17.415 196.660808,18.115 196.464808,18.787 C196.268808,19.459 195.971308,20.054 195.572308,20.572 C195.173308,21.09 194.676308,21.503 194.081308,21.811 C193.486308,22.119 192.789808,22.273 191.991808,22.273 C191.319808,22.273 190.700308,22.1365 190.133308,21.8635 C189.566308,21.5905 189.100808,21.188 188.736808,20.656 L188.736808,20.656 L188.694808,20.656 L188.694808,25.801 L185.712808,25.801 L185.712808,11.143 L188.547808,11.143 L188.547808,12.529 L188.589808,12.529 C188.953808,11.941 189.415808,11.514 189.975808,11.248 C190.535808,10.982 191.151808,10.849 191.823808,10.849 Z M15.7894737,6.08108108 L18.9189189,9.42389758 L18.9189189,21.7283073 L15.5761024,25 L3.27169275,25 L0,21.8705548 L0,12.2688478 L6.25889047,12.2688478 L6.25889047,6.08108108 L15.7894737,6.08108108 Z M33.6623654,7.09459459 C34.4816433,7.09459459 35.2557915,7.21248357 35.98481,7.44826151 C36.7138285,7.68403946 37.3664736,8.02730441 37.9427454,8.47805637 C38.5190171,8.92880833 38.9946149,9.48704729 39.3695387,10.1527733 C39.697597,10.7352835 39.9193402,11.3921244 40.0347681,12.1232961 L40.0777281,12.4412063 L36.9117049,12.4412063 C36.8561607,12.0667354 36.7311861,11.7234705 36.5367811,11.4114114 C36.3423762,11.0993524 36.09937,10.8254339 35.8077626,10.5896559 C35.5161553,10.353878 35.1863612,10.1701099 34.8183804,10.0383516 C34.4503996,9.90659334 34.0650613,9.84071421 33.6623654,9.84071421 C32.9264038,9.84071421 32.3015309,9.98287444 31.7877464,10.2671949 C31.2739619,10.5515154 30.8573799,10.9329209 30.5380004,11.4114114 C30.2186209,11.889902 29.9860293,12.4342716 29.8402256,13.0445204 C29.6944219,13.6547692 29.62152,14.285822 29.62152,14.9376786 C29.62152,15.5617967 29.6944219,16.1685782 29.8402256,16.7580231 C29.9860293,17.3474679 30.2186209,17.8779683 30.5380004,18.3495242 C30.8573799,18.8210801 31.2739619,19.1990183 31.7877464,19.4833388 C32.3015309,19.7676592 32.9264038,19.9098195 33.6623654,19.9098195 C34.6621622,19.9098195 35.4432534,19.6046951 36.0056391,18.9944463 C36.5168988,18.4396746 36.8474102,17.7244318 36.9971731,16.8487179 L37.0366795,16.5811896 L40.2027027,16.5811896 C40.1193863,17.5104321 39.9041523,18.3495242 39.5570006,19.0984659 C39.2098489,19.8474076 38.7516088,20.485395 38.18228,21.0124281 C37.6129513,21.5394611 36.9464201,21.9416706 36.1826864,22.2190564 C35.4189528,22.4964422 34.5788458,22.6351351 33.6623654,22.6351351 C32.5237079,22.6351351 31.4996105,22.4374977 30.5900732,22.0422229 C29.6805358,21.6469482 28.9133306,21.1025785 28.2884576,20.4091139 C27.6635846,19.7156494 27.1845153,18.9008285 26.8512497,17.9646514 C26.5179841,17.0284743 26.3513514,16.0194833 26.3513514,14.9376786 C26.3513514,13.8281354 26.5179841,12.7983405 26.8512497,11.8482941 C27.1845153,10.8982476 27.6635846,10.0695575 28.2884576,9.36222367 C28.9133306,8.65488983 29.6805358,8.10011819 30.5900732,7.69790875 C31.4996105,7.29569931 32.5237079,7.09459459 33.6623654,7.09459459 Z M49.1554054,7.09459459 C50.3004607,7.09459459 51.3213534,7.29569931 52.2180835,7.69790875 C53.1148135,8.10011819 53.8735851,8.65488983 54.4943982,9.36222367 C55.1152114,10.0695575 55.5911681,10.8982476 55.9222684,11.8482941 C56.2533688,12.7983405 56.4189189,13.8281354 56.4189189,14.9376786 C56.4189189,16.0194833 56.2533688,17.0284743 55.9222684,17.9646514 C55.5911681,18.9008285 55.1152114,19.7156494 54.4943982,20.4091139 C53.8735851,21.1025785 53.1148135,21.6469482 52.2180835,22.0422229 C51.3213534,22.4374977 50.3004607,22.6351351 49.1554054,22.6351351 C48.0241459,22.6351351 47.0067022,22.4374977 46.1030742,22.0422229 C45.1994462,21.6469482 44.4372257,21.1025785 43.8164126,20.4091139 C43.1955994,19.7156494 42.7196427,18.9008285 42.3885424,17.9646514 C42.0574421,17.0284743 41.8918919,16.0194833 41.8918919,14.9376786 C41.8918919,13.8281354 42.0574421,12.7983405 42.3885424,11.8482941 C42.7196427,10.8982476 43.1955994,10.0695575 43.8164126,9.36222367 C44.4372257,8.65488983 45.1994462,8.10011819 46.1030742,7.69790875 C47.0067022,7.29569931 48.0241459,7.09459459 49.1554054,7.09459459 Z M165.111808,6.649 C165.895808,6.649 166.648308,6.7365 167.369308,6.9115 C168.090308,7.0865 168.730808,7.37 169.290808,7.762 C169.850808,8.154 170.295308,8.6545 170.624308,9.2635 C170.953308,9.8725 171.117808,10.611 171.117808,11.479 L171.117808,11.479 L167.925808,11.479 C167.897808,11.031 167.803308,10.66 167.642308,10.366 C167.481308,10.072 167.267808,9.841 167.001808,9.673 C166.735808,9.505 166.431308,9.386 166.088308,9.316 C165.745308,9.246 165.370808,9.211 164.964808,9.211 C164.698808,9.211 164.432808,9.239 164.166808,9.295 C163.900808,9.351 163.659308,9.449 163.442308,9.589 C163.225308,9.729 163.046808,9.904 162.906808,10.114 C162.766808,10.324 162.696808,10.59 162.696808,10.912 C162.696808,11.206 162.752808,11.444 162.864808,11.626 C162.976808,11.808 163.197308,11.976 163.526308,12.13 C163.855308,12.284 164.310308,12.438 164.891308,12.592 C165.472308,12.746 166.231808,12.942 167.169808,13.18 C167.449808,13.236 167.838308,13.3375 168.335308,13.4845 C168.832308,13.6315 169.325808,13.866 169.815808,14.188 C170.305808,14.51 170.729308,14.9405 171.086308,15.4795 C171.443308,16.0185 171.621808,16.708 171.621808,17.548 C171.621808,18.234 171.488808,18.871 171.222808,19.459 C170.956808,20.047 170.561308,20.5545 170.036308,20.9815 C169.511308,21.4085 168.860308,21.741 168.083308,21.979 C167.306308,22.217 166.406808,22.336 165.384808,22.336 C164.558808,22.336 163.757308,22.2345 162.980308,22.0315 C162.203308,21.8285 161.517308,21.51 160.922308,21.076 C160.327308,20.642 159.854808,20.089 159.504808,19.417 C159.154808,18.745 158.986808,17.947 159.000808,17.023 L159.000808,17.023 L162.192808,17.023 C162.192808,17.527 162.283808,17.954 162.465808,18.304 C162.647808,18.654 162.889308,18.9375 163.190308,19.1545 C163.491308,19.3715 163.844808,19.5325 164.250808,19.6375 C164.656808,19.7425 165.076808,19.795 165.510808,19.795 C165.804808,19.795 166.119808,19.7705 166.455808,19.7215 C166.791808,19.6725 167.106808,19.578 167.400808,19.438 C167.694808,19.298 167.939808,19.1055 168.135808,18.8605 C168.331808,18.6155 168.429808,18.304 168.429808,17.926 C168.429808,17.52 168.300308,17.191 168.041308,16.939 C167.782308,16.687 167.442808,16.477 167.022808,16.309 C166.602808,16.141 166.126808,15.994 165.594808,15.868 C165.062808,15.742 164.523808,15.602 163.977808,15.448 C163.417808,15.308 162.871808,15.1365 162.339808,14.9335 C161.807808,14.7305 161.331808,14.468 160.911808,14.146 C160.491808,13.824 160.152308,13.4215 159.893308,12.9385 C159.634308,12.4555 159.504808,11.871 159.504808,11.185 C159.504808,10.415 159.669308,9.7465 159.998308,9.1795 C160.327308,8.6125 160.757808,8.14 161.289808,7.762 C161.821808,7.384 162.423808,7.104 163.095808,6.922 C163.767808,6.74 164.439808,6.649 165.111808,6.649 Z M62.1621622,7.43243243 L62.1621622,22.2972973 L58.7837838,22.2972973 L58.7837838,7.43243243 L62.1621622,7.43243243 Z M68.0986957,7.43243243 L74.2761418,17.4047998 L74.3176012,17.4047998 L74.3176012,7.43243243 L77.3648649,7.43243243 L77.3648649,22.2972973 L74.1103043,22.2972973 L67.9535879,12.3457491 L67.9121285,12.3457491 L67.9121285,22.2972973 L64.8648649,22.2972973 L64.8648649,7.43243243 L68.0986957,7.43243243 Z M87.4288168,7.43243243 C88.1395191,7.43243243 88.7875124,7.49488985 89.3727967,7.61980468 C89.958081,7.74471951 90.4597532,7.94944104 90.8778134,8.23396926 C91.2958736,8.51849749 91.6198703,8.89671184 91.8498034,9.36861231 C92.0797365,9.84051278 92.1947031,10.4234487 92.1947031,11.1174199 C92.1947031,11.8669089 92.0239951,12.4914831 91.6825793,12.9911424 C91.3411635,13.4908017 90.8360074,13.9002448 90.1671111,14.2194716 C91.0868435,14.4831807 91.773159,14.9446716 92.2260576,15.6039443 C92.6789561,16.263217 92.9054054,17.0578141 92.9054054,17.9877356 C92.9054054,18.7372246 92.7590843,19.3860878 92.4664422,19.9343251 C92.1738001,20.4825624 91.7801267,20.9301739 91.2854221,21.2771595 C90.7907176,21.6241452 90.2263363,21.8809145 89.5922783,22.0474676 C89.0850319,22.1807101 88.5666373,22.2606556 88.0370944,22.2873041 L87.6378469,22.2972973 L80.4054054,22.2972973 L80.4054054,7.43243243 L87.4288168,7.43243243 Z M132.605715,7.43243243 L132.605715,10.1805587 L124.851027,10.1805587 L124.851027,13.3658869 L131.968061,13.3658869 L131.968061,15.9058218 L124.851027,15.9058218 L124.851027,19.549171 L132.77027,19.549171 L132.77027,22.2972973 L121.621622,22.2972973 L121.621622,7.43243243 L132.605715,7.43243243 Z M96.8942627,7.43243243 L100.358582,13.3034295 L103.802157,7.43243243 L107.432432,7.43243243 L101.935159,16.5928534 L101.935159,22.2972973 L98.6782835,22.2972973 L98.6782835,16.5095768 L93.2432432,7.43243243 L96.8942627,7.43243243 Z M119.932432,7.43243243 L119.932432,10.1805587 L115.483368,10.1805587 L115.483368,22.2972973 L112.219335,22.2972973 L112.219335,10.1805587 L107.77027,10.1805587 L107.77027,7.43243243 L119.932432,7.43243243 Z M176.241808,11.143 L176.241808,17.275 C176.241808,18.171 176.381808,18.8395 176.661808,19.2805 C176.941808,19.7215 177.438808,19.942 178.152808,19.942 C178.964808,19.942 179.552808,19.7005 179.916808,19.2175 C180.280808,18.7345 180.462808,17.94 180.462808,16.834 L180.462808,16.834 L180.462808,11.143 L183.444808,11.143 L183.444808,22 L180.609808,22 L180.609808,20.488 L180.546808,20.488 C180.168808,21.118 179.678808,21.573 179.076808,21.853 C178.474808,22.133 177.858808,22.273 177.228808,22.273 C176.430808,22.273 175.776308,22.168 175.265308,21.958 C174.754308,21.748 174.351808,21.4505 174.057808,21.0655 C173.763808,20.6805 173.557308,20.2115 173.438308,19.6585 C173.319308,19.1055 173.259808,18.493 173.259808,17.821 L173.259808,17.821 L173.259808,11.143 L176.241808,11.143 Z M216.645808,10.849 C217.499808,10.849 218.273308,10.9855 218.966308,11.2585 C219.659308,11.5315 220.250808,11.9165 220.740808,12.4135 C221.230808,12.9105 221.608808,13.5125 221.874808,14.2195 C222.140808,14.9265 222.273808,15.714 222.273808,16.582 C222.273808,17.45 222.140808,18.234 221.874808,18.934 C221.608808,19.634 221.230808,20.2325 220.740808,20.7295 C220.250808,21.2265 219.659308,21.608 218.966308,21.874 C218.273308,22.14 217.499808,22.273 216.645808,22.273 C215.791808,22.273 215.021808,22.14 214.335808,21.874 C213.649808,21.608 213.061808,21.2265 212.571808,20.7295 C212.081808,20.2325 211.703808,19.634 211.437808,18.934 C211.171808,18.234 211.038808,17.45 211.038808,16.582 C211.038808,15.714 211.171808,14.9265 211.437808,14.2195 C211.703808,13.5125 212.081808,12.9105 212.571808,12.4135 C213.061808,11.9165 213.649808,11.5315 214.335808,11.2585 C215.021808,10.9855 215.791808,10.849 216.645808,10.849 Z M236.154808,7.888 L236.154808,11.143 L238.338808,11.143 L238.338808,13.138 L236.154808,13.138 L236.154808,18.514 C236.154808,19.018 236.238808,19.354 236.406808,19.522 C236.574808,19.69 236.910808,19.774 237.414808,19.774 C237.582808,19.774 237.743808,19.767 237.897808,19.753 C238.051808,19.739 238.198808,19.718 238.338808,19.69 L238.338808,19.69 L238.338808,22 C238.086808,22.042 237.806808,22.07 237.498808,22.084 C237.190808,22.098 236.889808,22.105 236.595808,22.105 C236.133808,22.105 235.696308,22.0735 235.283308,22.0105 C234.870308,21.9475 234.506308,21.825 234.191308,21.643 C233.876308,21.461 233.627808,21.202 233.445808,20.866 C233.263808,20.53 233.172808,20.089 233.172808,19.543 L233.172808,19.543 L233.172808,13.138 L231.366808,13.138 L231.366808,11.143 L233.172808,11.143 L233.172808,7.888 L236.154808,7.888 Z M230.547808,10.849 C230.743808,10.849 230.960808,10.884 231.198808,10.954 L231.198808,10.954 L231.198808,13.726 C231.058808,13.698 230.890808,13.6735 230.694808,13.6525 C230.498808,13.6315 230.309808,13.621 230.127808,13.621 C229.581808,13.621 229.119808,13.712 228.741808,13.894 C228.363808,14.076 228.059308,14.3245 227.828308,14.6395 C227.597308,14.9545 227.432808,15.322 227.334808,15.742 C227.236808,16.162 227.187808,16.617 227.187808,17.107 L227.187808,17.107 L227.187808,22 L224.205808,22 L224.205808,11.143 L227.040808,11.143 L227.040808,13.159 L227.082808,13.159 C227.222808,12.823 227.411808,12.5115 227.649808,12.2245 C227.887808,11.9375 228.160808,11.6925 228.468808,11.4895 C228.776808,11.2865 229.105808,11.129 229.455808,11.017 C229.805808,10.905 230.169808,10.849 230.547808,10.849 Z M191.172808,13.096 C190.682808,13.096 190.273308,13.1975 189.944308,13.4005 C189.615308,13.6035 189.349308,13.866 189.146308,14.188 C188.943308,14.51 188.799808,14.881 188.715808,15.301 C188.631808,15.721 188.589808,16.155 188.589808,16.603 C188.589808,17.037 188.635308,17.464 188.726308,17.884 C188.817308,18.304 188.964308,18.6715 189.167308,18.9865 C189.370308,19.3015 189.639808,19.557 189.975808,19.753 C190.311808,19.949 190.717808,20.047 191.193808,20.047 C191.683808,20.047 192.093308,19.949 192.422308,19.753 C192.751308,19.557 193.017308,19.3015 193.220308,18.9865 C193.423308,18.6715 193.566808,18.304 193.650808,17.884 C193.734808,17.464 193.776808,17.037 193.776808,16.603 C193.776808,16.169 193.731308,15.742 193.640308,15.322 C193.549308,14.902 193.398808,14.5275 193.188808,14.1985 C192.978808,13.8695 192.709308,13.6035 192.380308,13.4005 C192.051308,13.1975 191.648808,13.096 191.172808,13.096 Z M204.003808,13.096 C203.513808,13.096 203.104308,13.1975 202.775308,13.4005 C202.446308,13.6035 202.180308,13.866 201.977308,14.188 C201.774308,14.51 201.630808,14.881 201.546808,15.301 C201.462808,15.721 201.420808,16.155 201.420808,16.603 C201.420808,17.037 201.466308,17.464 201.557308,17.884 C201.648308,18.304 201.795308,18.6715 201.998308,18.9865 C202.201308,19.3015 202.470808,19.557 202.806808,19.753 C203.142808,19.949 203.548808,20.047 204.024808,20.047 C204.514808,20.047 204.924308,19.949 205.253308,19.753 C205.582308,19.557 205.848308,19.3015 206.051308,18.9865 C206.254308,18.6715 206.397808,18.304 206.481808,17.884 C206.565808,17.464 206.607808,17.037 206.607808,16.603 C206.607808,16.169 206.562308,15.742 206.471308,15.322 C206.380308,14.902 206.229808,14.5275 206.019808,14.1985 C205.809808,13.8695 205.540308,13.6035 205.211308,13.4005 C204.882308,13.1975 204.479808,13.096 204.003808,13.096 Z M216.645808,13.096 C216.141808,13.096 215.721808,13.1975 215.385808,13.4005 C215.049808,13.6035 214.780308,13.866 214.577308,14.188 C214.374308,14.51 214.230808,14.881 214.146808,15.301 C214.062808,15.721 214.020808,16.148 214.020808,16.582 C214.020808,17.016 214.062808,17.4395 214.146808,17.8525 C214.230808,18.2655 214.374308,18.6365 214.577308,18.9655 C214.780308,19.2945 215.049808,19.557 215.385808,19.753 C215.721808,19.949 216.141808,20.047 216.645808,20.047 C217.149808,20.047 217.573308,19.949 217.916308,19.753 C218.259308,19.557 218.532308,19.2945 218.735308,18.9655 C218.938308,18.6365 219.081808,18.2655 219.165808,17.8525 C219.249808,17.4395 219.291808,17.016 219.291808,16.582 C219.291808,16.148 219.249808,15.721 219.165808,15.301 C219.081808,14.881 218.938308,14.51 218.735308,14.188 C218.532308,13.866 218.259308,13.6035 217.916308,13.4005 C217.573308,13.1975 217.149808,13.096 216.645808,13.096 Z M49.3243243,9.7972973 C48.5859571,9.7972973 47.9590415,9.94038977 47.4435776,10.2265747 C46.9281137,10.5127597 46.51017,10.8966663 46.1897464,11.3782946 C45.8693229,11.8599229 45.635971,12.4078624 45.4896907,13.022113 C45.3434104,13.6363636 45.2702703,14.2715546 45.2702703,14.927686 C45.2702703,15.5558968 45.3434104,16.1666574 45.4896907,16.7599676 C45.635971,17.3532779 45.8693229,17.8872571 46.1897464,18.3619053 C46.51017,18.8365535 46.9281137,19.2169701 47.4435776,19.503155 C47.9590415,19.78934 48.5859571,19.9324324 49.3243243,19.9324324 C50.0626916,19.9324324 50.6896071,19.78934 51.2050711,19.503155 C51.720535,19.2169701 52.1384787,18.8365535 52.4589022,18.3619053 C52.7793257,17.8872571 53.0126776,17.3532779 53.1589579,16.7599676 C53.3052382,16.1666574 53.3783784,15.5558968 53.3783784,14.927686 C53.3783784,14.2715546 53.3052382,13.6363636 53.1589579,13.022113 C53.0126776,12.4078624 52.7793257,11.8599229 52.4589022,11.3782946 C52.1384787,10.8966663 51.720535,10.5127597 51.2050711,10.2265747 C50.6896071,9.94038977 50.0626916,9.7972973 49.3243243,9.7972973 Z M87.1074419,15.5405405 L83.4459459,15.5405405 L83.4459459,19.5945946 L87.0432052,19.5945946 C87.3715265,19.5945946 87.6855729,19.5635687 87.9853445,19.5015168 C88.2851161,19.439465 88.5492006,19.3360452 88.777598,19.1912576 C89.0059954,19.0464699 89.1879996,18.8499724 89.3236106,18.601765 C89.4592215,18.3535576 89.527027,18.0364038 89.527027,17.6503034 C89.527027,16.8918919 89.305767,16.3506619 88.863247,16.0266133 C88.4207271,15.7025648 87.8354587,15.5405405 87.1074419,15.5405405 Z M12.5177809,12.3399716 L6.25889047,12.3399716 L6.25889047,18.598862 L12.5177809,18.598862 L12.5177809,12.3399716 Z M86.5620032,10.1351351 L83.4459459,10.1351351 L83.4459459,13.5135135 L86.8163752,13.5135135 C87.4099099,13.5135135 87.8974563,13.3786481 88.2790143,13.1089173 C88.6605723,12.8391865 88.8513514,12.4008739 88.8513514,11.7939796 C88.8513514,11.4568161 88.7877583,11.180342 88.6605723,10.9645574 C88.5333863,10.7487727 88.363805,10.580191 88.1518283,10.4588121 C87.9398516,10.3374332 87.6960784,10.2531424 87.4205087,10.2059395 C87.1449391,10.1587366 86.8587705,10.1351351 86.5620032,10.1351351 Z M6.08108108,1.84741111e-13 L6.08108108,6.08108108 L3.2018832e-13,6.08108108 L3.2018832e-13,1.84741111e-13 L6.08108108,1.84741111e-13 Z" id="形状结合" fill="#01C19A" fill-rule="nonzero"></path>
    </g>
</svg>